# xmcd CD database file
#
# Track frame offsets:
#	150
#	14520
#	25992
#	39767
#	52855
#	74595
#	95345
#	110312
#	126350
#	135747
#	154440
#	172840
#
# Disc length: 2507 seconds
#
# Revision: 0
# Processed by: cddbd v1.5.1PL2 Copyright (c) Steve Scherf et al.
# Submitted via: CDex 1.51
#
DISCID=9a09c90c
DTITLE=Between Home and Serenity - Power Wepons in the Complex
DYEAR=2005
DGENRE=Rock
TTITLE0=Flawless Victory
TTITLE1=Tranquility
TTITLE2=Drain Out
TTITLE3=To Redefine
TTITLE4=Almost Only Counts
TTITLE5=Words Unspoken
TTITLE6=This Visible Camouflage
TTITLE7=Fall
TTITLE8=Until Dawn
TTITLE9=Displacements Secret Crush
TTITLE10=Just A Phase
TTITLE11=Bleeding Night
EXTD=YEAR: 2005
EXTT0=
EXTT1=
EXTT2=
EXTT3=
EXTT4=
EXTT5=
EXTT6=
EXTT7=
EXTT8=
EXTT9=
EXTT10=
EXTT11=
PLAYORDER=
